prolatino . info comparte

Dias.de.Pesca.2012.DVDRiP.HQ.x264-prolatino

Format                                   : Matroska
Format version                           : Version 4 / Version 2
File size                                : 786 MiB
Duration                                 : 1h 18mn
Overall bit rate                         : 1 391 Kbps
Encoded date                             : UTC 2013-04-16 17:40:08
Writing application                      : mkvmerge v6.1.0 ('Old Devil' built on Mar  2 2013 14:32:37
Writing library                          : libebml v1.3.0 + libmatroska v1.4.0

Video
ID                                       : 1
Format                                   : MPEG-4 Visual
Format profile                           : Advanced Simple@L5
Format settings, BVOP                    : Yes
Format settings, QPel                    : No
Format settings, GMC                     : No warppoints
Format settings, Matrix                  : Default (H.263)
Codec ID                                 : V_MPEG4/ISO/ASP
Codec ID/Info                            : Advanced Simple Profile
Duration                                 : 1h 18mn
Bit rate                                 : 980 Kbps
Width                                    : 720 pixels
Height                                   : 352 pixels
Display aspect ratio                     : 2.045
Frame rate mode                          : Constant
Frame rate                               : 23.976 fps
Color space                              : YUV
Chroma subsampling                       : 4:2:0
Bit depth                                : 8 bits
Scan type                                : Progressive
Compression mode                         : Lossy
Bits/(Pixel*Frame)                       : 0.161
Stream size                              : 553 MiB (70%)
Writing library                          : XviD 1.2.1 (UTC 2008-12-04)
Language                                 : English
Default                                  : Yes
Forced                                   : No

Audio
ID                                       : 2
Format                                   : AC-3
Format/Info                              : Audio Coding 3
Mode extension                           : CM (complete main)
Format settings, Endianness              : Big
Codec ID                                 : A_AC3
Duration                                 : 1h 18mn
Bit rate mode                            : Constant
Bit rate                                 : 384 Kbps
Channel(s)                               : 6 channels
Channel positions                        : Front: L C R, Side: L R, LFE
Sampling rate                            : 48.0 KHz
Bit depth                                : 16 bits
Compression mode                         : Lossy
Stream size                              : 217 MiB (28%)
Language                                 : Spanish
Default                                  : Yes
Forced                                   : No

Text #1
ID                                       : 3
Format                                   : VobSub
Muxing mode                              : zlib
Codec ID                                 : S_VOBSUB
Codec ID/Info                            : The same subtitle format used on DVDs
Language                                 : English
Default                                  : No
Forced                                   : No

Text #2
ID                                       : 4
Format                                   : VobSub
Muxing mode                              : zlib
Codec ID                                 : S_VOBSUB
Codec ID/Info                            : The same subtitle format used on DVDs
Language                                 : Spanish
Default                                  : No
Forced                                   : No